<?xml version="1.0" encoding="UTF-8" standalone="no"?>
<!-- Created with Inkscape (http://www.inkscape.org/) -->

<svg
   width="210mm"
   height="297mm"
   viewBox="0 0 210 297"
   version="1.1"
   id="svg1"
   inkscape:version="1.3.2 (091e20e, 2023-11-25, custom)"
   sodipodi:docname="slot_panel_icons.svg"
   xmlns:inkscape="http://www.inkscape.org/namespaces/inkscape"
   xmlns:sodipodi="http://sodipodi.sourceforge.net/DTD/sodipodi-0.dtd"
   xmlns:xlink="http://www.w3.org/1999/xlink"
   xmlns="http://www.w3.org/2000/svg"
   xmlns:svg="http://www.w3.org/2000/svg">
  <sodipodi:namedview
     id="namedview1"
     pagecolor="#464646"
     bordercolor="#000000"
     borderopacity="0.25"
     inkscape:showpageshadow="2"
     inkscape:pageopacity="0.0"
     inkscape:pagecheckerboard="0"
     inkscape:deskcolor="#d1d1d1"
     inkscape:document-units="mm"
     inkscape:zoom="11.313709"
     inkscape:cx="13.700194"
     inkscape:cy="101.07208"
     inkscape:window-width="1920"
     inkscape:window-height="1057"
     inkscape:window-x="-8"
     inkscape:window-y="-8"
     inkscape:window-maximized="1"
     inkscape:current-layer="layer1"
     showguides="true" />
  <defs
     id="defs1">
    <linearGradient
       id="linearGradient20"
       inkscape:collect="always">
      <stop
         style="stop-color:#6ac2f0;stop-opacity:1;"
         offset="0.338"
         id="stop23" />
      <stop
         style="stop-color:#6a98f0;stop-opacity:1;"
         offset="0.53600001"
         id="stop22" />
      <stop
         style="stop-color:#8d5ff2;stop-opacity:1;"
         offset="1"
         id="stop21" />
    </linearGradient>
    <inkscape:path-effect
       effect="fillet_chamfer"
       id="path-effect12"
       is_visible="true"
       lpeversion="1"
       nodesatellites_param="F,0,0,1,0,0,0,1 @ F,0,0,1,0,1.8595292,0,1 @ F,0,0,1,0,0,0,1 @ F,0,0,1,0,0,0,1"
       radius="0"
       unit="px"
       method="auto"
       mode="F"
       chamfer_steps="1"
       flexible="false"
       use_knot_distance="true"
       apply_no_radius="true"
       apply_with_radius="true"
       only_selected="false"
       hide_knots="false" />
    <inkscape:path-effect
       effect="fillet_chamfer"
       id="path-effect10"
       is_visible="true"
       lpeversion="1"
       nodesatellites_param="F,0,0,1,0,0,0,1 @ F,0,0,1,0,1.91012,0,1 @ F,0,0,1,0,0,0,1 @ F,0,0,1,0,0,0,1"
       radius="0"
       unit="px"
       method="auto"
       mode="F"
       chamfer_steps="1"
       flexible="false"
       use_knot_distance="true"
       apply_no_radius="true"
       apply_with_radius="true"
       only_selected="false"
       hide_knots="false" />
    <inkscape:path-effect
       effect="fillet_chamfer"
       id="path-effect9"
       is_visible="true"
       lpeversion="1"
       nodesatellites_param="F,0,0,1,0,0,0,1 @ F,0,0,1,0,0,0,1 @ F,0,0,1,0,0,0,1 @ F,0,0,1,0,0,0,1"
       radius="0"
       unit="px"
       method="auto"
       mode="F"
       chamfer_steps="1"
       flexible="false"
       use_knot_distance="true"
       apply_no_radius="true"
       apply_with_radius="true"
       only_selected="false"
       hide_knots="false" />
    <inkscape:path-effect
       effect="fillet_chamfer"
       id="path-effect8"
       is_visible="true"
       lpeversion="1"
       nodesatellites_param="F,0,0,1,0,0,0,1 @ F,0,0,1,0,0,0,1 @ F,0,0,1,0,0,0,1 @ F,0,0,1,0,0,0,1"
       radius="0"
       unit="px"
       method="auto"
       mode="F"
       chamfer_steps="1"
       flexible="false"
       use_knot_distance="true"
       apply_no_radius="true"
       apply_with_radius="true"
       only_selected="false"
       hide_knots="false" />
    <linearGradient
       inkscape:collect="always"
       xlink:href="#linearGradient20"
       id="linearGradient22"
       x1="44.625851"
       y1="0.94207233"
       x2="44.625851"
       y2="6.2740998"
       gradientUnits="userSpaceOnUse"
       spreadMethod="repeat" />
  </defs>
  <g
     inkscape:label="Camada 1"
     inkscape:groupmode="layer"
     id="layer1">
    <path
       style="fill:none;stroke:#c1c1c1;stroke-width:0.978416;stroke-linecap:round;stroke-dasharray:none;stroke-opacity:1"
       d="m 2.39519,2.6043649 c 0,0 1.2473411,1.7994589 1.571111,1.7994589 0.3237701,0 1.5711112,-1.7994589 1.5711112,-1.7994589"
       id="path1"
       sodipodi:nodetypes="czc" />
    <path
       style="fill:none;stroke:#c1c1c1;stroke-width:1.02784;stroke-linecap:round;stroke-dasharray:none;stroke-opacity:1"
       d="m 9.7918759,5.1545655 c 0,0 1.8903531,-1.3103469 1.8903531,-1.6504712 0,-0.3401244 -1.8903531,-1.6504712 -1.8903531,-1.6504712"
       id="path2"
       sodipodi:nodetypes="czc" />
    <path
       id="rect1"
       style="fill:#c1c1c1;stroke-width:1.47077;stroke-linecap:round;stroke-linejoin:round;fill-opacity:1"
       d="M 16.243453 0.80253499 C 15.594859 0.80253499 15.322071 1.2355792 15.311727 1.7177246 L 14.319539 1.7177246 C 14.074056 1.7177246 13.876156 1.9161423 13.876156 2.1616252 L 13.876156 2.2494751 C 13.876156 2.4642728 14.0278 2.642317 14.230139 2.6835571 L 19.797241 2.6835571 C 19.999466 2.6423172 20.150708 2.4642728 20.150708 2.2494751 L 20.150708 2.1616252 C 20.150708 1.9161421 19.953325 1.7177246 19.707841 1.7177246 L 18.807638 1.7177246 C 18.796769 1.2107823 18.511477 0.80253499 17.775142 0.80253499 L 16.243453 0.80253499 z M 14.633215 3.0060181 L 14.633215 5.7650228 C 14.633215 6.5112914 15.234153 7.1117106 15.98042 7.1117106 L 18.000968 7.1117106 C 18.747236 7.1117106 19.347656 6.5112914 19.347656 5.7650228 L 19.347656 3.0060181 L 14.633215 3.0060181 z M 15.59078 3.354834 L 15.703951 3.354834 C 15.942492 3.354834 16.134932 3.552218 16.134932 3.797701 L 16.134932 5.8771606 C 16.134932 6.1226439 15.942492 6.3205444 15.703951 6.3205444 L 15.59078 6.3205444 C 15.352239 6.3205444 15.160832 6.1226439 15.160832 5.8771606 L 15.160832 3.797701 C 15.160832 3.552218 15.352239 3.354834 15.59078 3.354834 z M 18.272786 3.354834 L 18.385958 3.354834 C 18.624499 3.354834 18.816939 3.552218 18.816939 3.797701 L 18.816939 5.8771606 C 18.816939 6.1226439 18.624499 6.3205444 18.385958 6.3205444 L 18.272786 6.3205444 C 18.034246 6.3205444 17.842839 6.1226439 17.842839 5.8771606 L 17.842839 3.797701 C 17.842839 3.552218 18.034246 3.354834 18.272786 3.354834 z M 16.957104 3.392041 L 17.070276 3.392041 C 17.308817 3.392041 17.500224 3.5899415 17.500224 3.8354248 L 17.500224 6.0905843 C 17.500224 6.3360676 17.308817 6.5329346 17.070276 6.5329346 L 16.957104 6.5329346 C 16.718565 6.5329346 16.52664 6.3360676 16.52664 6.0905843 L 16.52664 3.8354248 C 16.52664 3.5899415 16.718565 3.3920407 16.957104 3.392041 z " />
    <path
       id="path3"
       style="color:#000000;fill:#c1c1c1;stroke-linecap:round;-inkscape-stroke:none;fill-opacity:1"
       d="M 25.073499 1.7485736 C 24.998771 1.7482758 24.924128 1.7514492 24.84974 1.7578753 C 24.25464 1.8092843 23.677575 2.0759488 23.248288 2.5469744 L 23.181625 2.6193215 C 22.981518 2.8388847 22.825401 3.0733384 22.705168 3.2880145 L 22.649874 2.9769224 A 0.328163 0.328163 0 0 0 22.269019 2.7113055 A 0.328163 0.328163 0 0 0 22.003402 3.0921608 L 22.311911 4.8403745 L 23.939201 4.1742653 A 0.328163 0.328163 0 0 0 24.119035 3.7469012 A 0.328163 0.328163 0 0 0 23.691155 3.5670672 L 23.34854 3.7071104 C 23.447484 3.5229895 23.578902 3.3178048 23.745932 3.1345355 L 23.814661 3.0606382 C 24.409277 2.4082101 25.395898 2.3245123 26.093592 2.8653013 L 26.357658 3.0683896 A 0.38249999 0.38249999 0 0 0 26.894577 3.001727 A 0.38249999 0.38249999 0 0 0 26.826364 2.4648089 L 26.562297 2.2596535 C 26.121555 1.91803 25.596596 1.7506581 25.073499 1.7485736 z M 27.91777 3.4440773 L 26.292546 4.1081195 A 0.328163 0.328163 0 0 0 26.112712 4.5354836 A 0.328163 0.328163 0 0 0 26.540593 4.7153175 L 26.879074 4.5768247 C 26.779922 4.760785 26.649055 4.9657413 26.483232 5.1499163 L 26.327169 5.3240659 C 25.737116 5.9794261 24.763213 6.1020841 24.028085 5.6150042 L 23.850318 5.4976987 A 0.38249999 0.38249999 0 0 0 23.321151 5.6051857 A 0.38249999 0.38249999 0 0 0 23.428638 6.1364194 L 23.604338 6.2537249 C 24.127539 6.6003863 24.740028 6.7287183 25.326714 6.6542173 C 25.913399 6.5797164 26.475144 6.3020912 26.895093 5.8356626 L 27.051673 5.6620298 C 27.2504 5.4413077 27.405954 5.2058734 27.526063 4.9912697 L 27.581873 5.3054624 A 0.328163 0.328163 0 0 0 27.962728 5.5710793 A 0.328163 0.328163 0 0 0 28.228345 5.190224 L 27.91777 3.4440773 z "
       transform="translate(0.19369248,-0.3228208)" />
    <path
       style="fill:#c1c1c1;fill-opacity:1;stroke:none;stroke-width:0.765;stroke-linecap:round;stroke-dasharray:none;stroke-opacity:1"
       d="m 33.64046,1.3229166 c -0.304603,-0.0024 -1.743128,1.7697234 -1.743128,3.1843017 0,1.4145783 1.345123,1.5263593 1.74313,1.5263593 0.398007,0 1.67787,-0.1035805 1.67787,-1.5273928 0,-1.4238123 -1.373269,-3.1808664 -1.677872,-3.1832682 z"
       id="path13"
       sodipodi:nodetypes="zzzzz" />
    <path
       style="fill:#c1c1c1;fill-opacity:1;stroke:#000000;stroke-width:0.265;stroke-linecap:round;stroke-dasharray:none;stroke-opacity:1"
       d="m 40.023533,1.3229166 c -0.304603,-0.0024 -1.743128,1.7697234 -1.743128,3.1843017 0,1.4145783 1.345123,1.5263593 1.74313,1.5263593 0.398007,0 1.67787,-0.1035805 1.67787,-1.5273928 0,-1.4238123 -1.373269,-3.1808664 -1.677872,-3.1832682 z"
       id="path14"
       sodipodi:nodetypes="zzzzz" />
    <path
       style="fill:url(#linearGradient22);fill-opacity:1;stroke:none;stroke-width:0.265;stroke-linecap:round;stroke-dasharray:none;stroke-opacity:1"
       d="m 46.501478,1.3229166 c -0.304603,-0.0024 -1.743128,1.7697234 -1.743128,3.1843017 0,1.4145783 1.345123,1.5263593 1.74313,1.5263593 0.398007,0 1.67787,-0.1035805 1.67787,-1.5273928 0,-1.4238123 -1.373269,-3.1808664 -1.677872,-3.1832682 z"
       id="path15"
       sodipodi:nodetypes="zzzzz" />
    <rect
       style="fill:#8eef97;fill-opacity:0;stroke:#8eef97;stroke-width:0.565;stroke-linecap:round;stroke-opacity:1;stroke-dasharray:none"
       id="rect2"
       width="4.6538305"
       height="4.6538305"
       x="1.5902536"
       y="8.2236748"
       rx="1.0523738"
       ry="1.0523738" />
    <rect
       style="fill:#8eef97;fill-opacity:1;stroke:none;stroke-width:0.665001;stroke-linecap:round;stroke-dasharray:none;stroke-opacity:1"
       id="rect3"
       width="1.2898437"
       height="1.2898437"
       x="2.3316402"
       y="9.0206375"
       rx="0.30823293"
       ry="0.30823293" />
    <rect
       style="fill:#8eef97;fill-opacity:1;stroke:none;stroke-width:0.665001;stroke-linecap:round;stroke-dasharray:none;stroke-opacity:1"
       id="rect4"
       width="1.2898437"
       height="1.2898437"
       x="4.2333331"
       y="9.0206375"
       rx="0.30823293"
       ry="0.30823293" />
    <rect
       style="fill:#8eef97;fill-opacity:1;stroke:none;stroke-width:0.665001;stroke-linecap:round;stroke-dasharray:none;stroke-opacity:1"
       id="rect5"
       width="1.2898437"
       height="1.2898437"
       x="2.3316402"
       y="10.806575"
       rx="0.30823293"
       ry="0.30823293" />
    <rect
       style="fill:#8eef97;fill-opacity:1;stroke:none;stroke-width:0.665001;stroke-linecap:round;stroke-dasharray:none;stroke-opacity:1"
       id="rect6"
       width="1.2898437"
       height="1.2898437"
       x="4.2333331"
       y="10.806575"
       rx="0.30823293"
       ry="0.30823293" />
    <rect
       style="fill:#c1c1c1;stroke:none;stroke-width:0.564999;stroke-linecap:round"
       id="rect8"
       width="1.1637131"
       height="5.1593747"
       x="-11.02301"
       y="7.6804957"
       rx="0.57877606"
       ry="0.57877606"
       transform="rotate(-90)" />
    <rect
       style="fill:#c1c1c1;stroke:none;stroke-width:0.564999;stroke-linecap:round"
       id="rect9"
       width="1.1637131"
       height="5.1593747"
       x="-10.84204"
       y="-13.020841"
       rx="0.57877606"
       ry="0.57877606"
       transform="scale(-1)" />
    <path
       id="path4"
       style="color:#000000;fill:#8eef97;stroke-linecap:round;stroke-width:1;stroke-dasharray:none"
       d="M 17.635099 8.7581217 L 17.635099 9.3560181 C 17.805578 9.4586269 17.954232 9.5930387 18.073315 9.7513428 L 18.699634 9.7513428 C 18.475988 9.3060955 18.097314 8.9513089 17.635099 8.7581217 z M 15.877584 8.8309855 C 15.48628 9.0339453 15.167806 9.3574119 14.969629 9.7513428 L 15.525667 9.7513428 C 15.547933 9.7513428 15.569469 9.7537211 15.59078 9.7570272 C 15.674147 9.6451685 15.772046 9.5448993 15.882235 9.4593709 C 15.879432 9.4396997 15.877584 9.4198963 15.877584 9.3994263 L 15.877584 8.8309855 z M 14.92002 11.508858 C 15.111936 11.949943 15.452816 12.311583 15.877584 12.532568 L 15.877584 11.900049 C 15.738573 11.790855 15.618259 11.658979 15.5236 11.508858 L 14.92002 11.508858 z M 18.144112 11.508858 C 18.015616 11.712449 17.841589 11.884146 17.635099 12.008569 L 17.635099 12.606982 C 18.132378 12.398712 18.533366 12.002752 18.74821 11.508858 L 18.144112 11.508858 z " />
    <path
       id="rect7"
       style="fill:#8eef97;stroke-width:0.665001;stroke-linecap:round"
       d="m 16.43128,8.2839756 h 0.673378 c 0.170761,0 0.308233,0.1374719 0.308233,0.3082329 v 0.6733778 c 0,0.1707611 -0.137472,0.308233 -0.308233,0.308233 H 16.43128 c -0.170761,0 -0.308233,-0.1374719 -0.308233,-0.308233 V 8.5922085 c 0,-0.170761 0.137472,-0.3082329 0.308233,-0.3082329 z" />
    <path
       id="rect10"
       style="fill:#8eef97;stroke-width:0.665001;stroke-linecap:round"
       d="m 16.43128,11.686651 h 0.673378 c 0.170761,0 0.308233,0.137472 0.308233,0.308233 v 0.673378 c 0,0.170761 -0.137472,0.308233 -0.308233,0.308233 H 16.43128 c -0.170761,0 -0.308233,-0.137472 -0.308233,-0.308233 v -0.673378 c 0,-0.170761 0.137472,-0.308233 0.308233,-0.308233 z" />
    <rect
       style="fill:#8eef97;fill-opacity:1;stroke:none;stroke-width:0.665001;stroke-linecap:round;stroke-dasharray:none;stroke-opacity:1"
       id="rect11"
       width="1.2898437"
       height="1.2898437"
       x="-11.275157"
       y="14.421709"
       rx="0.30823293"
       ry="0.30823293"
       transform="rotate(-90)" />
    <rect
       style="fill:#8eef97;fill-opacity:1;stroke:none;stroke-width:0.665001;stroke-linecap:round;stroke-dasharray:none;stroke-opacity:1"
       id="rect12"
       width="1.2898437"
       height="1.2898437"
       x="-11.275157"
       y="17.824385"
       rx="0.30823293"
       ry="0.30823293"
       transform="rotate(-90)" />
    <path
       id="rect13"
       style="fill:#8eef97;stroke-width:0.665001;stroke-linecap:round"
       transform="rotate(-90)"
       d="m -10.966924,14.421709 h 0.673378 c 0.170761,0 0.3082327,0.137472 0.3082327,0.308233 v 0.673378 c 0,0.170761 -0.1374717,0.308233 -0.3082327,0.308233 h -0.673378 c -0.170761,0 -0.308233,-0.137472 -0.308233,-0.308233 v -0.673378 c 0,-0.170761 0.137472,-0.308233 0.308233,-0.308233 z" />
    <path
       id="rect14"
       style="fill:#8eef97;stroke-width:0.665001;stroke-linecap:round"
       transform="rotate(-90)"
       d="m -10.966924,17.824385 h 0.673378 c 0.170761,0 0.3082327,0.137472 0.3082327,0.308233 v 0.673377 c 0,0.170761 -0.1374717,0.308233 -0.3082327,0.308233 h -0.673378 c -0.170761,0 -0.308233,-0.137472 -0.308233,-0.308233 v -0.673377 c 0,-0.170761 0.137472,-0.308233 0.308233,-0.308233 z" />
    <circle
       style="fill:#8eef97;fill-opacity:1;stroke-width:1.10398;stroke-linecap:round;stroke-dasharray:none"
       id="path10"
       cx="16.764399"
       cy="10.639959"
       r="0.51635754" />
    <path
       id="rect16"
       style="fill:#c1c1c1;fill-opacity:1;stroke-width:1;stroke-linecap:round;stroke-dasharray:none"
       d="M 24.209375 8.6981771 C 24.132652 8.6981771 24.057789 8.7065101 23.985616 8.7214315 L 24.541138 9.2769531 L 25.729696 9.2769531 L 26.303821 8.702828 C 26.272995 8.7002347 26.241806 8.6981771 26.210286 8.6981771 L 24.209375 8.6981771 z M 27.285673 9.6081991 L 26.722917 10.170955 L 26.722917 11.458732 L 27.278438 12.014254 C 27.29336 11.94208 27.301693 11.867218 27.301693 11.790495 L 27.301693 9.7895833 C 27.301693 9.7276912 27.295478 9.6672254 27.285673 9.6081991 z M 23.120553 9.7435913 C 23.119919 9.7589335 23.117969 9.7740799 23.117969 9.7895833 L 23.117969 11.790495 C 23.117969 11.822014 23.120026 11.853203 23.12262 11.884029 L 23.696745 11.309904 L 23.696745 10.319784 L 23.120553 9.7435913 z M 24.590747 12.303125 L 24.027991 12.865881 C 24.087017 12.875686 24.147483 12.881901 24.209375 12.881901 L 26.210286 12.881901 C 26.22579 12.881901 26.240936 12.879951 26.256278 12.879317 L 25.680086 12.303125 L 24.590747 12.303125 z " />
    <path
       id="rect17"
       style="fill:#ef9393;fill-opacity:1;stroke-width:1;stroke-linecap:round;stroke-dasharray:none"
       d="M 10.441886 22.520799 C 10.361184 22.440097 10.24985 22.389983 10.126174 22.389983 C 9.8788221 22.389983 9.6796462 22.589159 9.6796462 22.836511 L 9.6796462 24.974145 L 7.542012 24.974145 C 7.2946599 24.974145 7.0954839 25.173321 7.0954839 25.420673 C 7.0954839 25.668025 7.2946599 25.867201 7.542012 25.867201 L 9.6796462 25.867201 L 9.6796462 28.004835 C 9.6796462 28.252187 9.8788221 28.451363 10.126174 28.451363 C 10.373526 28.451363 10.572702 28.252187 10.572702 28.004835 L 10.572702 25.867201 L 12.710336 25.867201 C 12.957689 25.867201 13.156864 25.668025 13.156864 25.420673 C 13.156864 25.173321 12.957689 24.974145 12.710336 24.974145 L 10.572702 24.974145 L 10.572702 22.836511 C 10.572702 22.712835 10.522588 22.601501 10.441886 22.520799 z "
       transform="rotate(-45)" />
    <circle
       style="fill:#c1c1c1;fill-opacity:1;stroke-width:1;stroke-linecap:round;stroke-dasharray:none"
       id="path21"
       cx="33.602085"
       cy="9.442318"
       r="0.52916664" />
    <circle
       style="fill:#c1c1c1;fill-opacity:1;stroke-width:1;stroke-linecap:round;stroke-dasharray:none"
       id="circle21"
       cx="33.602085"
       cy="10.897527"
       r="0.52916664" />
    <circle
       style="fill:#c1c1c1;fill-opacity:1;stroke-width:1;stroke-linecap:round;stroke-dasharray:none"
       id="circle22"
       cx="33.602085"
       cy="12.350902"
       r="0.52916664" />
    <rect
       style="fill:#c1c1c1;fill-opacity:1;stroke-width:0.797724;stroke-linecap:round;stroke-dasharray:none"
       id="rect22"
       width="0.65481055"
       height="4.2562675"
       x="39.803116"
       y="8.6996231"
       rx="0.32740527"
       ry="0.51449394" />
    <rect
       style="fill:#c1c1c1;fill-opacity:1;stroke-width:1;stroke-linecap:round;stroke-dasharray:none"
       id="rect23"
       width="1.4515482"
       height="0.88867044"
       x="38.94067"
       y="8.6516762"
       rx="0.44433522"
       ry="0.44433522" />
    <rect
       style="fill:#c1c1c1;fill-opacity:1;stroke-width:1;stroke-linecap:round;stroke-dasharray:none"
       id="rect24"
       width="1.4515482"
       height="0.88867044"
       x="39.899498"
       y="8.6516762"
       rx="0.44433522"
       ry="0.44433522" />
    <rect
       style="fill:#c1c1c1;fill-opacity:1;stroke-width:1;stroke-linecap:round;stroke-dasharray:none"
       id="rect25"
       width="1.4515482"
       height="0.88867044"
       x="38.94067"
       y="12.195844"
       rx="0.44433522"
       ry="0.44433522" />
    <rect
       style="fill:#c1c1c1;fill-opacity:1;stroke-width:1;stroke-linecap:round;stroke-dasharray:none"
       id="rect26"
       width="1.4515482"
       height="0.88867044"
       x="39.899498"
       y="12.195844"
       rx="0.44433522"
       ry="0.44433522" />
    <path
       style="fill:none;fill-opacity:1;stroke:#8eef97;stroke-width:1.02784;stroke-linecap:round;stroke-dasharray:none;stroke-opacity:1"
       d="m 45.709065,12.496753 c 0,0 1.890353,-1.310346 1.890353,-1.650471 0,-0.340124 -1.890353,-1.650471 -1.890353,-1.650471"
       id="path26"
       sodipodi:nodetypes="czc" />
    <path
       id="rect27"
       style="fill:#c1c1c1;fill-opacity:1;stroke:none;stroke-width:1;stroke-linecap:round;stroke-dasharray:none;stroke-opacity:1"
       d="m 2.4344768,14.750521 c -0.2677851,0 -0.4831747,0.215389 -0.4831747,0.483175 v 3.597713 c 0,0.267786 0.2153896,0.483175 0.4831747,0.483175 h 0.054777 c -0.014057,-0.04906 -0.021704,-0.100819 -0.021704,-0.154513 v -1.903243 c 0,-0.30843 0.2481241,-0.557072 0.5565552,-0.557072 h 2.1321695 c 0.3084311,0 0.557072,0.248642 0.557072,0.557072 v 1.903243 c 0,0.05369 -0.00765,0.105456 -0.021704,0.154513 h 0.042891 c 0.267785,0 0.4831747,-0.215389 0.4831747,-0.483175 V 16.573666 L 5.0317342,15.387692 v 0.616499 c 0,0.198895 -0.1602566,0.359152 -0.3591512,0.359152 H 3.2974732 c -0.1988946,0 -0.3586345,-0.160257 -0.3586345,-0.359152 v -1.227315 c 0,-0.0088 4.166e-4,-0.01771 0.00103,-0.02635 z" />
    <rect
       style="fill:#f88a8a;fill-opacity:1;stroke:none;stroke-width:0.861333;stroke-linecap:round;stroke-dasharray:none;stroke-opacity:1"
       id="rect30"
       width="2.4272463"
       height="2.2560277"
       x="2.8767631"
       y="17.080402"
       rx="0.41633871"
       ry="0.41633871" />
    <rect
       style="fill:#c1c1c1;fill-opacity:1;stroke:none;stroke-width:0.458062;stroke-linecap:round;stroke-dasharray:none;stroke-opacity:1"
       id="rect31"
       width="1.2908282"
       height="1.1997728"
       x="3.3397348"
       y="14.790505"
       rx="0.32063046"
       ry="0.32063046" />
    <path
       id="path31"
       style="fill:#c1c1c1;fill-opacity:1;stroke:none;stroke-width:1;stroke-linecap:round;stroke-dasharray:none;stroke-opacity:1"
       d="m 8.842264,14.750521 c -0.2677851,0 -0.4831747,0.215389 -0.4831747,0.483175 v 3.597713 c 0,0.267786 0.2153896,0.483175 0.4831747,0.483175 H 8.897041 C 8.882984,19.265524 8.875337,19.213765 8.875337,19.160071 v -1.903243 c 0,-0.30843 0.2481241,-0.557072 0.5565552,-0.557072 h 2.1321698 c 0.308431,0 0.557072,0.248642 0.557072,0.557072 v 1.903243 c 0,0.05369 -0.0076,0.105456 -0.0217,0.154513 h 0.04289 c 0.267785,0 0.483174,-0.215389 0.483174,-0.483175 v -2.257743 l -1.185974,-1.185974 v 0.616499 c 0,0.198895 -0.160256,0.359152 -0.359151,0.359152 H 9.7052604 c -0.1988946,0 -0.3586345,-0.160257 -0.3586345,-0.359152 v -1.227315 c 0,-0.0088 4.166e-4,-0.01771 0.00103,-0.02635 z" />
    <rect
       style="fill:#8af8a6;fill-opacity:1;stroke:none;stroke-width:0.861333;stroke-linecap:round;stroke-dasharray:none;stroke-opacity:1"
       id="rect32"
       width="2.4272463"
       height="2.2560277"
       x="9.2845507"
       y="17.080402"
       rx="0.41633871"
       ry="0.41633871" />
    <rect
       style="fill:#c1c1c1;fill-opacity:1;stroke:none;stroke-width:0.458062;stroke-linecap:round;stroke-dasharray:none;stroke-opacity:1"
       id="rect33"
       width="1.2908282"
       height="1.1997728"
       x="9.7475224"
       y="14.790505"
       rx="0.32063046"
       ry="0.32063046" />
    <rect
       style="fill:#c1c1c1;fill-opacity:1;stroke:none;stroke-width:2.19136;stroke-linecap:round;stroke-dasharray:none;stroke-opacity:1"
       id="rect34"
       width="1.2628484"
       height="6.5247169"
       x="3.320827"
       y="21.374882"
       rx="0.63142419"
       ry="0.63142425" />
    <rect
       style="fill:#c1c1c1;fill-opacity:1;stroke:none;stroke-width:2.19136;stroke-linecap:round;stroke-dasharray:none;stroke-opacity:1"
       id="rect37"
       width="1.2628484"
       height="6.5247169"
       x="24.073887"
       y="-14.45812"
       rx="0.63142419"
       ry="0.63142425"
       transform="rotate(90)" />
  </g>
</svg>
