<?xml version="1.0" encoding="UTF-8" standalone="no"?>
<!-- Created with Inkscape (http://www.inkscape.org/) -->

<svg
   width="210mm"
   height="297mm"
   viewBox="0 0 210 297"
   version="1.1"
   id="svg1"
   inkscape:version="1.3.2 (091e20e, 2023-11-25, custom)"
   sodipodi:docname="slot_panel_icons.svg"
   xmlns:inkscape="http://www.inkscape.org/namespaces/inkscape"
   xmlns:sodipodi="http://sodipodi.sourceforge.net/DTD/sodipodi-0.dtd"
   xmlns:xlink="http://www.w3.org/1999/xlink"
   xmlns="http://www.w3.org/2000/svg"
   xmlns:svg="http://www.w3.org/2000/svg">
  <sodipodi:namedview
     id="namedview1"
     pagecolor="#464646"
     bordercolor="#000000"
     borderopacity="0.25"
     inkscape:showpageshadow="2"
     inkscape:pageopacity="0.0"
     inkscape:pagecheckerboard="0"
     inkscape:deskcolor="#d1d1d1"
     inkscape:document-units="mm"
     inkscape:zoom="2.8284271"
     inkscape:cx="38.890873"
     inkscape:cy="2.298097"
     inkscape:window-width="1920"
     inkscape:window-height="1057"
     inkscape:window-x="-8"
     inkscape:window-y="-8"
     inkscape:window-maximized="1"
     inkscape:current-layer="layer1"
     showguides="true" />
  <defs
     id="defs1">
    <linearGradient
       id="linearGradient20"
       inkscape:collect="always">
      <stop
         style="stop-color:#6ac2f0;stop-opacity:1;"
         offset="0.338"
         id="stop23" />
      <stop
         style="stop-color:#6a98f0;stop-opacity:1;"
         offset="0.53600001"
         id="stop22" />
      <stop
         style="stop-color:#8d5ff2;stop-opacity:1;"
         offset="1"
         id="stop21" />
    </linearGradient>
    <inkscape:path-effect
       effect="fillet_chamfer"
       id="path-effect12"
       is_visible="true"
       lpeversion="1"
       nodesatellites_param="F,0,0,1,0,0,0,1 @ F,0,0,1,0,1.8595292,0,1 @ F,0,0,1,0,0,0,1 @ F,0,0,1,0,0,0,1"
       radius="0"
       unit="px"
       method="auto"
       mode="F"
       chamfer_steps="1"
       flexible="false"
       use_knot_distance="true"
       apply_no_radius="true"
       apply_with_radius="true"
       only_selected="false"
       hide_knots="false" />
    <inkscape:path-effect
       effect="fillet_chamfer"
       id="path-effect10"
       is_visible="true"
       lpeversion="1"
       nodesatellites_param="F,0,0,1,0,0,0,1 @ F,0,0,1,0,1.91012,0,1 @ F,0,0,1,0,0,0,1 @ F,0,0,1,0,0,0,1"
       radius="0"
       unit="px"
       method="auto"
       mode="F"
       chamfer_steps="1"
       flexible="false"
       use_knot_distance="true"
       apply_no_radius="true"
       apply_with_radius="true"
       only_selected="false"
       hide_knots="false" />
    <inkscape:path-effect
       effect="fillet_chamfer"
       id="path-effect9"
       is_visible="true"
       lpeversion="1"
       nodesatellites_param="F,0,0,1,0,0,0,1 @ F,0,0,1,0,0,0,1 @ F,0,0,1,0,0,0,1 @ F,0,0,1,0,0,0,1"
       radius="0"
       unit="px"
       method="auto"
       mode="F"
       chamfer_steps="1"
       flexible="false"
       use_knot_distance="true"
       apply_no_radius="true"
       apply_with_radius="true"
       only_selected="false"
       hide_knots="false" />
    <inkscape:path-effect
       effect="fillet_chamfer"
       id="path-effect8"
       is_visible="true"
       lpeversion="1"
       nodesatellites_param="F,0,0,1,0,0,0,1 @ F,0,0,1,0,0,0,1 @ F,0,0,1,0,0,0,1 @ F,0,0,1,0,0,0,1"
       radius="0"
       unit="px"
       method="auto"
       mode="F"
       chamfer_steps="1"
       flexible="false"
       use_knot_distance="true"
       apply_no_radius="true"
       apply_with_radius="true"
       only_selected="false"
       hide_knots="false" />
    <linearGradient
       inkscape:collect="always"
       xlink:href="#linearGradient20"
       id="linearGradient22"
       x1="44.625851"
       y1="0.94207233"
       x2="44.625851"
       y2="6.2740998"
       gradientUnits="userSpaceOnUse"
       spreadMethod="repeat" />
  </defs>
  <g
     inkscape:label="Camada 1"
     inkscape:groupmode="layer"
     id="layer1">
    <path
       style="fill:none;stroke:#c1c1c1;stroke-width:1.242;stroke-linecap:round;stroke-dasharray:none;stroke-opacity:1"
       d="m 1.9719354,2.3619794 c 0,0 1.5833726,2.2842299 1.9943656,2.2842299 0.4109932,0 1.9943658,-2.2842299 1.9943658,-2.2842299"
       id="path1"
       sodipodi:nodetypes="czc" />
    <path
       style="fill:none;stroke:#c1c1c1;stroke-width:1.242;stroke-linecap:round;stroke-dasharray:none;stroke-opacity:1"
       d="m 9.5949377,5.4984599 c 0,0 2.2842293,-1.5833726 2.2842293,-1.9943656 0,-0.4109932 -2.2842293,-1.9943656 -2.2842293,-1.9943656"
       id="path2"
       sodipodi:nodetypes="czc" />
    <path
       id="rect1"
       style="fill:#c1c1c1;stroke-width:1.47077;stroke-linecap:round;stroke-linejoin:round;fill-opacity:1"
       d="M 16.243453 0.80253499 C 15.594859 0.80253499 15.322071 1.2355792 15.311727 1.7177246 L 14.319539 1.7177246 C 14.074056 1.7177246 13.876156 1.9161423 13.876156 2.1616252 L 13.876156 2.2494751 C 13.876156 2.4642728 14.0278 2.642317 14.230139 2.6835571 L 19.797241 2.6835571 C 19.999466 2.6423172 20.150708 2.4642728 20.150708 2.2494751 L 20.150708 2.1616252 C 20.150708 1.9161421 19.953325 1.7177246 19.707841 1.7177246 L 18.807638 1.7177246 C 18.796769 1.2107823 18.511477 0.80253499 17.775142 0.80253499 L 16.243453 0.80253499 z M 14.633215 3.0060181 L 14.633215 5.7650228 C 14.633215 6.5112914 15.234153 7.1117106 15.98042 7.1117106 L 18.000968 7.1117106 C 18.747236 7.1117106 19.347656 6.5112914 19.347656 5.7650228 L 19.347656 3.0060181 L 14.633215 3.0060181 z M 15.59078 3.354834 L 15.703951 3.354834 C 15.942492 3.354834 16.134932 3.552218 16.134932 3.797701 L 16.134932 5.8771606 C 16.134932 6.1226439 15.942492 6.3205444 15.703951 6.3205444 L 15.59078 6.3205444 C 15.352239 6.3205444 15.160832 6.1226439 15.160832 5.8771606 L 15.160832 3.797701 C 15.160832 3.552218 15.352239 3.354834 15.59078 3.354834 z M 18.272786 3.354834 L 18.385958 3.354834 C 18.624499 3.354834 18.816939 3.552218 18.816939 3.797701 L 18.816939 5.8771606 C 18.816939 6.1226439 18.624499 6.3205444 18.385958 6.3205444 L 18.272786 6.3205444 C 18.034246 6.3205444 17.842839 6.1226439 17.842839 5.8771606 L 17.842839 3.797701 C 17.842839 3.552218 18.034246 3.354834 18.272786 3.354834 z M 16.957104 3.392041 L 17.070276 3.392041 C 17.308817 3.392041 17.500224 3.5899415 17.500224 3.8354248 L 17.500224 6.0905843 C 17.500224 6.3360676 17.308817 6.5329346 17.070276 6.5329346 L 16.957104 6.5329346 C 16.718565 6.5329346 16.52664 6.3360676 16.52664 6.0905843 L 16.52664 3.8354248 C 16.52664 3.5899415 16.718565 3.3920407 16.957104 3.392041 z " />
    <path
       id="path3"
       style="color:#000000;fill:#c1c1c1;stroke-linecap:round;-inkscape-stroke:none;fill-opacity:1"
       d="M 25.073499 1.7485736 C 24.998771 1.7482758 24.924128 1.7514492 24.84974 1.7578753 C 24.25464 1.8092843 23.677575 2.0759488 23.248288 2.5469744 L 23.181625 2.6193215 C 22.981518 2.8388847 22.825401 3.0733384 22.705168 3.2880145 L 22.649874 2.9769224 A 0.328163 0.328163 0 0 0 22.269019 2.7113055 A 0.328163 0.328163 0 0 0 22.003402 3.0921608 L 22.311911 4.8403745 L 23.939201 4.1742653 A 0.328163 0.328163 0 0 0 24.119035 3.7469012 A 0.328163 0.328163 0 0 0 23.691155 3.5670672 L 23.34854 3.7071104 C 23.447484 3.5229895 23.578902 3.3178048 23.745932 3.1345355 L 23.814661 3.0606382 C 24.409277 2.4082101 25.395898 2.3245123 26.093592 2.8653013 L 26.357658 3.0683896 A 0.38249999 0.38249999 0 0 0 26.894577 3.001727 A 0.38249999 0.38249999 0 0 0 26.826364 2.4648089 L 26.562297 2.2596535 C 26.121555 1.91803 25.596596 1.7506581 25.073499 1.7485736 z M 27.91777 3.4440773 L 26.292546 4.1081195 A 0.328163 0.328163 0 0 0 26.112712 4.5354836 A 0.328163 0.328163 0 0 0 26.540593 4.7153175 L 26.879074 4.5768247 C 26.779922 4.760785 26.649055 4.9657413 26.483232 5.1499163 L 26.327169 5.3240659 C 25.737116 5.9794261 24.763213 6.1020841 24.028085 5.6150042 L 23.850318 5.4976987 A 0.38249999 0.38249999 0 0 0 23.321151 5.6051857 A 0.38249999 0.38249999 0 0 0 23.428638 6.1364194 L 23.604338 6.2537249 C 24.127539 6.6003863 24.740028 6.7287183 25.326714 6.6542173 C 25.913399 6.5797164 26.475144 6.3020912 26.895093 5.8356626 L 27.051673 5.6620298 C 27.2504 5.4413077 27.405954 5.2058734 27.526063 4.9912697 L 27.581873 5.3054624 A 0.328163 0.328163 0 0 0 27.962728 5.5710793 A 0.328163 0.328163 0 0 0 28.228345 5.190224 L 27.91777 3.4440773 z "
       transform="translate(0.19369248,-0.3228208)" />
    <path
       style="fill:#c1c1c1;fill-opacity:1;stroke:none;stroke-width:0.765;stroke-linecap:round;stroke-dasharray:none;stroke-opacity:1"
       d="m 33.64046,1.3229166 c -0.304603,-0.0024 -1.743128,1.7697234 -1.743128,3.1843017 0,1.4145783 1.345123,1.5263593 1.74313,1.5263593 0.398007,0 1.67787,-0.1035805 1.67787,-1.5273928 0,-1.4238123 -1.373269,-3.1808664 -1.677872,-3.1832682 z"
       id="path13"
       sodipodi:nodetypes="zzzzz" />
    <path
       style="fill:#c1c1c1;fill-opacity:1;stroke:#000000;stroke-width:0.265;stroke-linecap:round;stroke-dasharray:none;stroke-opacity:1"
       d="m 40.023533,1.3229166 c -0.304603,-0.0024 -1.743128,1.7697234 -1.743128,3.1843017 0,1.4145783 1.345123,1.5263593 1.74313,1.5263593 0.398007,0 1.67787,-0.1035805 1.67787,-1.5273928 0,-1.4238123 -1.373269,-3.1808664 -1.677872,-3.1832682 z"
       id="path14"
       sodipodi:nodetypes="zzzzz" />
    <path
       style="fill:url(#linearGradient22);fill-opacity:1;stroke:#000000;stroke-width:0.265;stroke-linecap:round;stroke-dasharray:none;stroke-opacity:1"
       d="m 46.501478,1.3229166 c -0.304603,-0.0024 -1.743128,1.7697234 -1.743128,3.1843017 0,1.4145783 1.345123,1.5263593 1.74313,1.5263593 0.398007,0 1.67787,-0.1035805 1.67787,-1.5273928 0,-1.4238123 -1.373269,-3.1808664 -1.677872,-3.1832682 z"
       id="path15"
       sodipodi:nodetypes="zzzzz" />
    <rect
       style="fill:#8eef97;fill-opacity:0;stroke:#8eef97;stroke-width:0.565;stroke-linecap:round;stroke-opacity:1;stroke-dasharray:none"
       id="rect2"
       width="4.6538305"
       height="4.6538305"
       x="1.5902536"
       y="8.2236748"
       rx="1.0523738"
       ry="1.0523738" />
    <rect
       style="fill:#8eef97;fill-opacity:1;stroke:none;stroke-width:0.665001;stroke-linecap:round;stroke-dasharray:none;stroke-opacity:1"
       id="rect3"
       width="1.2898437"
       height="1.2898437"
       x="2.3316402"
       y="9.0206375"
       rx="0.30823293"
       ry="0.30823293" />
    <rect
       style="fill:#8eef97;fill-opacity:1;stroke:none;stroke-width:0.665001;stroke-linecap:round;stroke-dasharray:none;stroke-opacity:1"
       id="rect4"
       width="1.2898437"
       height="1.2898437"
       x="4.2333331"
       y="9.0206375"
       rx="0.30823293"
       ry="0.30823293" />
    <rect
       style="fill:#8eef97;fill-opacity:1;stroke:none;stroke-width:0.665001;stroke-linecap:round;stroke-dasharray:none;stroke-opacity:1"
       id="rect5"
       width="1.2898437"
       height="1.2898437"
       x="2.3316402"
       y="10.806575"
       rx="0.30823293"
       ry="0.30823293" />
    <rect
       style="fill:#8eef97;fill-opacity:1;stroke:none;stroke-width:0.665001;stroke-linecap:round;stroke-dasharray:none;stroke-opacity:1"
       id="rect6"
       width="1.2898437"
       height="1.2898437"
       x="4.2333331"
       y="10.806575"
       rx="0.30823293"
       ry="0.30823293" />
  </g>
</svg>
